<svg xmlns="http://www.w3.org/2000/svg" viewBox="0 0 130 137"><g data-name="Layer 2"><g data-name="Layer 1"><path fill="#f93052" d="M117.24 71.29c0 29.41-23.41 53.25-52.3 53.25a51.43 51.43 0 0 1-33.59-12.45 53.26 53.26 0 0 1-17.73-30.52 54 54 0 0 1-1-10.28C12.64 41.88 36.05 18 64.94 18a51.56 51.56 0 0 1 28.8 8.8 52.74 52.74 0 0 1 11.43 10.43 53.6 53.6 0 0 1 12.07 34z"/><path fill="#f15a24" d="M114.5 54.24l-66.31 67.51a51.73 51.73 0 01-16.85-9.66c.21-.27.43-.51.67-.76l71.31-72.61a9.58 9.58 0 011.84-1.45 53.57 53.57 0 019.34 16.97zM93.74 26.84c-.18.21-.35.41-.55.61l-71.32 72.61c-.2.2-.39.38-.6.56a53.36 53.36 0 01-7.66-19L75 19a51.37 51.37 0 0118.74 7.84z"/><path fill="#ed1c24" d="M129.31 62.5a65 65 0 0 1-128.62 0A66.08 66.08 0 0 0 0 72a65 65 0 0 0 130 0 66.08 66.08 0 0 0-.69-9.5z"/><path fill="#f7931e" d="M65 20a45 45 0 1 1-45 45 45.05 45.05 0 0 1 45-45m0-20a65 65 0 1 0 65 65A65 65 0 0 0 65 0z"/><path fill="#f15a24" d="M65.5 111c-25.27 0-47.76-9.89-62.11-25.26A65 65 0 0 0 126 87.37C111.64 101.81 89.86 111 65.5 111z"/><g data-name="Layer 2"><g data-name="Layer 1-2"><path fill="#ed1c24" d="M68.65 80L76 100.6a2 2 0 00.15.32c.83 1.59 3.28 2.2 5.67 1.34s3.89-2.88 3.53-4.64a2 2 0 00-.09-.34L77.9 76.64c-.66-1.83-3.28-2.58-5.82-1.67a6 6 0 00-2.92 2.15 3.12 3.12 0 00-.51 2.88zM66.54 78.79l-7.48 20.87a2 2 0 01-.15.32c-.84 1.61-3.3 2.23-5.68 1.38s-3.89-2.9-3.52-4.67a2 2 0 01.09-.34l7.48-20.87c.66-1.85 3.29-2.62 5.84-1.71A5.92 5.92 0 0166 75.92a3.14 3.14 0 01.54 2.87zM65.91 45.67c.22-.44.58-.44.8 0l2.54 5.15a1.92 1.92 0 001.29.94l5.69.83c.49.07.6.41.25.76l-4.12 4a1.92 1.92 0 00-.49 1.52l1 5.67c.08.49-.21.7-.65.47l-5.09-2.68a1.92 1.92 0 00-1.59 0L60.42 65c-.44.23-.73 0-.65-.47l1-5.67a1.92 1.92 0 00-.49-1.52l-4.12-4c-.35-.35-.24-.69.25-.76l5.69-.83a1.92 1.92 0 001.29-.94z"/><path fill="#fff" d="M67.57 79.29L75 99.93a2 2 0 00.15.32c.83 1.59 3.28 2.2 5.67 1.34s3.89-2.88 3.53-4.64a2 2 0 00-.09-.34L76.83 76c-.66-1.83-3.28-2.58-5.82-1.67a6 6 0 00-2.92 2.15 3.12 3.12 0 00-.52 2.81zM65.46 78.12L58 99a2 2 0 01-.15.32c-.84 1.61-3.3 2.23-5.68 1.38s-3.91-2.9-3.53-4.7a2 2 0 01.09-.34l7.48-20.86c.66-1.85 3.29-2.62 5.84-1.71A5.92 5.92 0 0165 75.25a3.14 3.14 0 01.46 2.87zM64.17 44.27c.22-.44.58-.44.8 0l2.54 5.15a1.92 1.92 0 001.29.94l5.69.83c.49.07.6.41.25.76l-4.12 4a1.92 1.92 0 00-.49 1.52l1 5.67c.08.49-.21.7-.65.47l-5.09-2.68a1.92 1.92 0 00-1.59 0l-5.09 2.68c-.44.23-.73 0-.65-.47l1-5.67a1.92 1.92 0 00-.54-1.47l-4.12-4c-.35-.35-.24-.69.25-.76l5.69-.83a1.92 1.92 0 001.29-.94z"/><path fill="#fff" d="M65.46 77.34A21.84 21.84 0 1 1 87.3 55.51a21.86 21.86 0 0 1-21.84 21.83zm0-36.61a14.77 14.77 0 1 0 14.78 14.78 14.77 14.77 0 0 0-14.78-14.77z"/></g></g></g></g></svg>